# xmcd
#
# Track frame offsets: 
#        150
#        14375
#        28878
#        41923
#        54455
#        65877
#        78824
#        90162
#        102618
#        115078
#        129071
#        142431
#        154285
#        169030
#        183262
#        194514
#        206600
#        218182
#        230502
#        242543
#        254907
#        265740
#        278089
#        290073
#        302682
#        314459
#        326907
#
# Disc length: 4493 seconds
#
# Revision: 2
# Processed by: cddbd v1.5.2PL0 Copyright (c) Steve Scherf et al.
# Submitted via: ExactAudioCopy v0.95a5
#
DISCID=9c118b1b
DTITLE=Lightnin'  Hopkins - Collected Works, Vol. 2, Disc A
DYEAR=1900
DGENRE=Blues
TTITLE0=What Kind of Heart Have You
TTITLE1=Mad as I Can Be (alt. tk.)
TTITLE2=Ain't It a Shame
TTITLE3=Crazy 'bout My Baby
TTITLE4=What's the Matter Now
TTITLE5=My Mama Told Me
TTITLE6=Highway Blues
TTITLE7=I'm Wild About You Baby
TTITLE8=Bad Things on My Mind
TTITLE9=The War is Over
TTITLE10=Policy Game
TTITLE11=Merry Christmas
TTITLE12=Happy New Year
TTITLE13=Cemetery Blues
TTITLE14=I Love You Baby
TTITLE15=Shine On Moon
TTITLE16=Lightnin's Boogie
TTITLE17=Lonesome in Your Home
TTITLE18=Remember Me
TTITLE19=Sittin' Down Thinkin'
TTITLE20=Lightnin's Special
TTITLE21=Please Don't Go Baby
TTITLE22=Don't Think 'Cause You're Pretty
TTITLE23=Life I Used to Live
TTITLE24=Grandma's Boogie
TTITLE25=My Baby's Gone
TTITLE26=Early Mornin' Boogie
EXTD=
EXTT0=
EXTT1=
EXTT2=
EXTT3=
EXTT4=
EXTT5=
EXTT6=
EXTT7=
EXTT8=
EXTT9=
EXTT10=
EXTT11=
EXTT12=
EXTT13=
EXTT14=
EXTT15=
EXTT16=
EXTT17=
EXTT18=
EXTT19=
EXTT20=
EXTT21=
EXTT22=
EXTT23=
EXTT24=
EXTT25=
EXTT26=
PLAYORDER=
